# xmcd
#
# Track frame offsets: 
#        150
#        16125
#        40597
#        57809
#        72769
#        92516
#        105692
#        125490
#        143534
#        162373
#        186564
#        206585
#        225379
#        239788
#        254851
#
# Disc length: 3543 seconds
#
# Revision: 2
# Processed by: cddbd v1.5.2PL0 Copyright (c) Steve Scherf et al.
# Submitted via: ExactAudioCopy v1.0b3
#
DISCID=cf0dd50f
DTITLE=Sharrie Williams - I'm Here To Stay
DYEAR=2007
DGENRE=Blues, Gospel Blues
TTITLE0=Fire
TTITLE1=Jealousy
TTITLE2=Seeking
TTITLE3=I'm Here To Stay
TTITLE4=Gotta Go Thru Hell
TTITLE5=Will You Still Love Me
TTITLE6=Rhythm Of Life
TTITLE7=I Gotta Find Me A Mojo
TTITLE8=Power
TTITLE9=It's Getting Late
TTITLE10=I'm A Real Woman
TTITLE11=Don't Give Up
TTITLE12=I'm So Blue
TTITLE13=Time
TTITLE14=Pocono Praise
EXTD=
EXTT0=
EXTT1=
EXTT2=
EXTT3=
EXTT4=
EXTT5=
EXTT6=
EXTT7=
EXTT8=
EXTT9=
EXTT10=
EXTT11=
EXTT12=
EXTT13=
EXTT14=
PLAYORDER=
